<svg width="25" height="24" viewBox="0 0 25 24" fill="none" xmlns="http://www.w3.org/2000/svg">
    <path d="M3.89773 12.0698C3.89773 12.0698 4.58545 11.9943 5.8871 9.81344C5.8871 9.81344 5.91661 9.7753 5.96538 9.70201C6.61129 12.6839 9.72034 12.2013 9.72034 12.2013L10.0187 11.0451C7.93015 11.4959 7.9031 9.0429 7.9031 9.0429L11.1035 10.1426C11.3876 9.83187 11.5683 9.44617 11.6445 9.03133C11.6749 10.0247 11.5847 11.0957 11.2937 12.2013C11.2937 12.2013 13.2282 11.4677 14.5663 12.7465C14.5663 12.7465 14.4384 10.5257 13.7696 8.22951C14.1532 7.99509 14.9733 7.64925 15.1179 8.87362C15.3081 10.4811 17.4774 12.7087 19.5118 9.945C19.5118 9.945 18.2372 10.6783 17.5319 9.15561C16.872 7.7311 16.6159 5.86389 14.8327 6.41201C15.8536 5.60719 16.8085 4.30396 15.6061 3.09244C14.0028 1.47679 11.5031 3.40571 11.063 3.7687C10.7749 3.58185 10.4638 3.43742 10.1273 3.34614C10.1273 3.34614 11.1585 5.10621 11.524 7.64796C11.29 6.99056 10.7999 6.38287 10.0457 5.99717C9.1482 5.53734 7.95556 5.62047 7.07236 6.23588C7.25924 4.69737 7.21539 2.63732 6.5744 0L3.46412 1.61693C3.46412 1.61693 5.8871 6.42958 3.68093 9.62573C3.68093 9.62573 0.859998 7.85838 2.63215 4.28639L0.824342 3.94783C0.824342 3.94783 -0.108044 5.04107 0.0103995 6.75871C0.147696 8.74377 1.47927 11.4295 3.89773 12.0698ZM14.386 4.15739C15.0909 5.05778 14.036 5.86475 13.12 6.0396C13.12 6.0396 12.9519 4.97636 12.3425 4.28425C12.3425 4.28425 13.681 3.25658 14.386 4.15739ZM9.74411 6.81357C10.3302 7.02099 10.6503 7.70667 10.5376 8.42493L8.19737 7.53996C8.53672 6.93056 9.17361 6.61172 9.74411 6.81357ZM20.9676 9.32446H21.0069C20.6598 10.5651 20.0401 11.2727 19.268 11.7874C17.8573 12.7276 16.013 12.2013 16.013 12.2013C16.429 13.4043 20.9676 15.6602 22.3778 11.6746C23.7881 7.6891 21.2389 4.96307 21.2389 4.96307C21.37 6.613 21.3184 7.86138 21.1254 8.8282C20.7532 8.88434 18.7794 9.00004 19.6655 4.88808L17.6405 4.09825C17.6405 4.09825 16.6278 9.73844 20.9676 9.32446ZM22.4319 15.1339C20.0274 14.5322 18.4901 15.3032 18.4901 15.3032C18.4901 15.3032 19.9368 15.7729 20.1901 18.1985C20.443 20.6237 17.8934 22.2968 17.8934 22.2968C17.8934 22.2968 20.7143 22.8419 22.8299 21.9205C24.9455 20.9995 25 18.7436 25 18.4239C25 18.1042 24.8369 15.7356 22.4319 15.1339ZM21.8233 20.2487C21.7807 20.2509 21.7389 20.2496 21.6967 20.247C22.0647 19.8527 22.2901 19.2318 22.2614 18.5414C22.227 17.7001 21.8258 16.9938 21.2803 16.6917C21.4049 16.6463 21.5364 16.6171 21.6737 16.6107C22.5217 16.573 23.2426 17.3568 23.284 18.3614C23.3254 19.3663 22.6717 20.2114 21.8233 20.2487ZM19.0778 18.4882C19.0778 16.6669 17.6389 15.1901 15.8638 15.1901C15.688 15.1901 15.5155 15.2055 15.3478 15.2334C14.8827 14.0501 13.765 13.2162 12.4597 13.2162C10.8728 13.2162 9.56337 14.4491 9.36705 16.0437C7.99081 16.3069 6.50186 17.2163 6.00431 19.7867L7.65925 20.1819C7.65925 20.1819 7.98917 19.2249 8.87401 18.3639L8.9068 18.4616C8.9068 18.4616 9.12402 21.2815 6.92686 21.6201C4.72971 21.9586 3.4006 19.4486 4.07888 17.785C4.75717 16.1209 6.14038 16.5627 6.14038 16.5627L8.81623 13.9494L7.81253 13.517C4.98258 12.4829 1.33951 14.4007 1.1223 18.6022C0.905491 22.8042 5.43505 25.3708 8.58139 23.2276C10.2855 22.0666 10.6208 20.3597 10.5703 19.0389C11.0949 19.455 11.749 19.7023 12.4597 19.7023C12.5974 19.7023 12.7323 19.692 12.865 19.6744C13.3294 20.9091 14.4966 21.7855 15.8638 21.7855C17.6389 21.7855 19.0778 20.3091 19.0778 18.4882ZM13.1511 16.72C13.1204 16.7701 13.0905 16.8207 13.0618 16.8726C12.8577 17.1683 12.5249 17.3615 12.1478 17.3615C11.8732 17.3615 11.6216 17.2591 11.4257 17.089C11.6503 17.0534 11.8855 17.0294 12.1343 17.0234L12.0531 16.1775C12.0531 16.1775 11.6462 16.0502 11.0408 15.9863C11.1343 15.4382 11.5937 15.0212 12.1478 15.0212C12.7695 15.0212 13.2737 15.5449 13.2737 16.1916C13.2737 16.3819 13.229 16.561 13.1511 16.72ZM15.172 19.4486C14.8368 19.4486 14.536 19.2969 14.3273 19.0569C14.922 18.5941 15.3519 17.9152 15.511 17.1331C15.9749 17.2831 16.3114 17.7331 16.3114 18.2641C16.3114 18.9181 15.8011 19.4486 15.172 19.4486Z" fill="#E91709"/>
</svg>
